<?xml version="1.0" standalone="no"?>
<!DOCTYPE svg PUBLIC "-//W3C//DTD SVG 20010904//EN"
  "http://www.w3.org/TR/2001/REC-SVG-20010904/DTD/svg10.dtd">
<svg width="64" height="64">
<g style="fill:black;fill-opacity:1;stroke:none;stroke-width:1;stroke-opacity:1;fill-rule:nonzero;">
<g style="opacity 0.2 ">
  <path d="M 10,9.9998875 C 9.5,10 9,11 8.0369845,10.999888 H 2.0000002 v 0.5 L 2,20 c 0,1.5 1.5,1.5 1.5,1.5 l 17,-1.13e-4 C 20.5,21.5 22,21.5 22,20 V 9.9998875 Z"/>
</g>
<g style="fill:#1f6394;">
  <path d="M 2.0000002,12.999888 H 22 V 5.5000563 c 0,-1.5 -1.5,-1.5 -1.5,-1.5 L 12,3.9999436 C 11.5,4.0000563 10.942212,2.9998803 10.028451,2.999895 L 3.5,3 C 3.5,3 2,3 2,4.5 Z"/>
</g>
<g style="fill:#ffffff;">
  <rect x="3" y="6" width="18" height="4.5" rx="0.474" ry="0.5"/>
</g>
<g style="fill:#127bdc;">
  <path d="M 10,8.9999998 C 9.5,9.0001123 9,10.000112 8.0369845,10 H 2.0000002 v 0.5 L 2,19.5 C 2,21 3.5,21 3.5,21 l 17,-1.13e-4 C 20.5,21 22,21 22,19.5 V 8.9999998 Z"/>
</g>
</g>
</svg>
