<?xml version="1.0" standalone="no"?>
<!DOCTYPE svg PUBLIC "-//W3C//DTD SVG 20010904//EN"
  "http://www.w3.org/TR/2001/REC-SVG-20010904/DTD/svg10.dtd">
<svg width="64" height="64">
<g style="fill:black;fill-opacity:1;stroke:none;stroke-width:1;stroke-opacity:1;fill-rule:nonzero;">
<g style="opacity 0.2 ">
  <rect x="2" y="2.5" width="20" height="20" rx="1" ry="1"/>
</g>
<g style="fill:#4f4f4f;">
  <rect x="2" y="2" width="20" height="20" rx="1" ry="1"/>
</g>
<g style="opacity 0.1 fill:#ffffff;">
  <path d="M 3,2 C 2.446,2 2,2.446 2,3 V 3.5 C 2,2.946 2.446,2.5 3,2.5 H 21 C 21.554,2.5 22,2.946 22,3.5 V 3 C 22,2.446 21.554,2 21,2 Z"/>
</g>
<g style="opacity 0.2 fill:none;stroke:#000000;stroke-width:2;stroke-linecap:round;stroke-linejoin:round;">
  <path d="M 6,8.5 10,12.5 6,16.5"/>
</g>
<g style="fill:none;stroke:#f2f2f2;stroke-width:2;stroke-linecap:round;stroke-linejoin:round;">
  <path d="M 6,8 10,12 6,16"/>
</g>
<g style="opacity 0.2 fill:none;stroke:#000000;stroke-width:2;stroke-linecap:round;stroke-linejoin:round;">
  <path d="M 18,16.5 H 12"/>
</g>
<g style="fill:none;stroke:#f2f2f2;stroke-width:2;stroke-linecap:round;stroke-linejoin:round;">
  <path d="M 18,16 H 12"/>
</g>
</g>
</svg>
