<?xml version="1.0" standalone="no"?>
<!DOCTYPE svg PUBLIC "-//W3C//DTD SVG 20010904//EN"
  "http://www.w3.org/TR/2001/REC-SVG-20010904/DTD/svg10.dtd">
<svg width="64" height="64">
<g style="fill:black;fill-opacity:1;stroke:none;stroke-width:1;stroke-opacity:1;fill-rule:nonzero;">
<g style="fill:#e4e4e4;">
  <path d="M 20,21 V 3 C 20,2.446 19.554,2 19,2 H 5 C 4.446,2 4,2.446 4,3 v 18 c 0,0.554 0.446,1 1,1 h 14 c 0.554,0 1,-0.446 1,-1 z"/>
</g>
<g style="opacity 0.2 ">
  <path d="m 4,21 v 0.5 c 0,0.554 0.446,1 1,1 h 14 c 0.554,0 1,-0.446 1,-1 V 21 c 0,0.554 -0.446,1 -1,1 H 5 C 4.446,22 4,21.554 4,21 Z"/>
</g>
<g style="fill:#f34235;">
  <circle cx="17.5" cy="17.5" r="5.5"/>
</g>
<g style="fill:#ffffff;">
  <path d="M 19.005859 15 C 18.930007 15 18.853822 15.028993 18.794922 15.087891 L 18.212891 15.673828 L 19.326172 16.787109 L 19.912109 16.205078 C 20.029905 16.087282 20.029905 15.902955 19.912109 15.785156 L 19.214844 15.087891 C 19.155946 15.028993 19.081712 15 19.005859 15 z M 17.505859 16.380859 L 15 18.886719 L 15 20 L 16.113281 20 L 18.619141 17.494141 L 17.505859 16.380859 z"/>
</g>
<g style="opacity 0.2 fill:#ffffff;">
  <path d="M 5,2 C 4.446,2 4,2.446 4,3 v 0.5 c 0,-0.554 0.446,-1 1,-1 h 14 c 0.554,0 1,0.446 1,1 V 3 C 20,2.446 19.554,2 19,2 Z"/>
</g>
</g>
</svg>
